<svg width="182" height="84" viewBox="0 0 182 84" fill="none" xmlns="http://www.w3.org/2000/svg">
<path d="M26.928 71H19.248V56.84C19.248 55.208 18.912 54.008 18.24 53.24C17.6 52.472 16.736 52.088 15.648 52.088C15.072 52.088 14.416 52.28 13.68 52.664C12.976 53.016 12.32 53.528 11.712 54.2C11.104 54.872 10.64 55.656 10.32 56.552V71H2.64V35.96H10.32V50.024C11.248 48.52 12.464 47.368 13.968 46.568C15.504 45.736 17.184 45.32 19.008 45.32C20.736 45.32 22.112 45.608 23.136 46.184C24.192 46.76 24.992 47.528 25.536 48.488C26.08 49.416 26.448 50.44 26.64 51.56C26.832 52.68 26.928 53.784 26.928 54.872V71ZM30.4466 63.464C30.4466 61.8 30.9106 60.344 31.8386 59.096C32.7666 57.848 34.0466 56.872 35.6786 56.168C37.3106 55.432 39.1826 55.064 41.2946 55.064C42.3186 55.064 43.3266 55.16 44.3186 55.352C45.3106 55.512 46.1746 55.752 46.9106 56.072V54.968C46.9106 53.592 46.4946 52.536 45.6626 51.8C44.8306 51.064 43.5666 50.696 41.8706 50.696C40.4626 50.696 39.1346 50.936 37.8866 51.416C36.6706 51.896 35.3746 52.584 33.9986 53.48L31.6946 48.584C33.3586 47.496 35.0866 46.68 36.8786 46.136C38.7026 45.592 40.6226 45.32 42.6386 45.32C46.4146 45.32 49.3426 46.232 51.4226 48.056C53.5346 49.848 54.5906 52.456 54.5906 55.88V62.456C54.5906 63.224 54.7026 63.768 54.9266 64.088C55.1826 64.376 55.6146 64.552 56.2226 64.616V71C55.5826 71.128 54.9746 71.224 54.3986 71.288C53.8546 71.352 53.3746 71.384 52.9586 71.384C51.5186 71.384 50.4146 71.096 49.6466 70.52C48.9106 69.944 48.4466 69.16 48.2546 68.168L48.1106 67.064C46.9906 68.504 45.6466 69.608 44.0786 70.376C42.5426 71.112 40.9266 71.48 39.2306 71.48C37.5666 71.48 36.0626 71.128 34.7186 70.424C33.4066 69.72 32.3666 68.76 31.5986 67.544C30.8306 66.328 30.4466 64.968 30.4466 63.464ZM45.7106 64.424C46.0626 64.136 46.3506 63.816 46.5746 63.464C46.7986 63.112 46.9106 62.776 46.9106 62.456V60.2C46.2706 59.944 45.5506 59.752 44.7506 59.624C43.9826 59.464 43.2626 59.384 42.5906 59.384C41.1826 59.384 40.0146 59.704 39.0866 60.344C38.1586 60.952 37.6946 61.768 37.6946 62.792C37.6946 63.368 37.8546 63.896 38.1746 64.376C38.4946 64.856 38.9266 65.24 39.4706 65.528C40.0466 65.816 40.7186 65.96 41.4866 65.96C42.2546 65.96 43.0226 65.816 43.7906 65.528C44.5586 65.24 45.1986 64.872 45.7106 64.424ZM45.1346 43.544L40.2386 42.2L42.7346 35.96H49.6946L45.1346 43.544ZM75.2756 71.48C73.3556 71.48 71.6756 71.08 70.2356 70.28C68.7956 69.448 67.6596 68.296 66.8276 66.824V71H60.1556V35.96H67.8356V49.928C68.6676 48.456 69.7716 47.32 71.1476 46.52C72.5556 45.72 74.2036 45.32 76.0916 45.32C77.6916 45.32 79.1476 45.672 80.4596 46.376C81.8036 47.048 82.9556 47.992 83.9156 49.208C84.9076 50.392 85.6756 51.784 86.2196 53.384C86.7636 54.952 87.0356 56.664 87.0356 58.52C87.0356 60.344 86.7316 62.04 86.1236 63.608C85.5476 65.176 84.7316 66.552 83.6756 67.736C82.6196 68.92 81.3716 69.848 79.9316 70.52C78.5236 71.16 76.9716 71.48 75.2756 71.48ZM73.1156 65C73.9796 65 74.7796 64.84 75.5156 64.52C76.2836 64.168 76.9396 63.704 77.4836 63.128C78.0276 62.552 78.4436 61.88 78.7316 61.112C79.0196 60.312 79.1636 59.448 79.1636 58.52C79.1636 57.336 78.9236 56.232 78.4436 55.208C77.9636 54.184 77.2916 53.368 76.4276 52.76C75.5956 52.152 74.6196 51.848 73.4996 51.848C72.6996 51.848 71.9316 52.04 71.1956 52.424C70.4596 52.808 69.8036 53.336 69.2276 54.008C68.6516 54.648 68.1876 55.384 67.8356 56.216V61.496C68.0916 62.04 68.4116 62.536 68.7956 62.984C69.1796 63.4 69.5956 63.752 70.0436 64.04C70.5236 64.328 71.0196 64.568 71.5316 64.76C72.0756 64.92 72.6036 65 73.1156 65ZM90.8588 71V45.8H98.5388V71H90.8588ZM90.8588 42.92V35.96H98.5388V42.92H90.8588ZM120.116 69.656C119.412 69.944 118.628 70.232 117.764 70.52C116.932 70.808 116.052 71.032 115.124 71.192C114.196 71.384 113.284 71.48 112.388 71.48C111.108 71.48 109.924 71.272 108.836 70.856C107.78 70.408 106.932 69.688 106.292 68.696C105.684 67.704 105.38 66.392 105.38 64.76V51.608H102.164V45.8H105.38V37.784H113.06V45.8H118.196V51.608H113.06V62.12C113.06 62.952 113.268 63.56 113.684 63.944C114.1 64.296 114.628 64.472 115.268 64.472C115.812 64.472 116.388 64.376 116.996 64.184C117.636 63.992 118.18 63.784 118.628 63.56L120.116 69.656ZM134.828 71.48C132.684 71.48 130.764 71.128 129.068 70.424C127.404 69.72 125.996 68.76 124.844 67.544C123.692 66.328 122.812 64.936 122.204 63.368C121.628 61.8 121.34 60.152 121.34 58.424C121.34 56.664 121.628 55 122.204 53.432C122.812 51.864 123.692 50.472 124.844 49.256C125.996 48.04 127.404 47.08 129.068 46.376C130.764 45.672 132.684 45.32 134.828 45.32C136.972 45.32 138.876 45.672 140.54 46.376C142.204 47.08 143.612 48.04 144.764 49.256C145.916 50.472 146.796 51.864 147.404 53.432C148.012 55 148.316 56.664 148.316 58.424C148.316 60.152 148.012 61.8 147.404 63.368C146.796 64.936 145.916 66.328 144.764 67.544C143.612 68.76 142.204 69.72 140.54 70.424C138.876 71.128 136.972 71.48 134.828 71.48ZM129.212 58.424C129.212 59.736 129.452 60.888 129.932 61.88C130.444 62.872 131.116 63.64 131.948 64.184C132.78 64.728 133.74 65 134.828 65C135.884 65 136.828 64.728 137.66 64.184C138.524 63.608 139.196 62.824 139.676 61.832C140.156 60.84 140.396 59.704 140.396 58.424C140.396 57.112 140.156 55.96 139.676 54.968C139.196 53.976 138.524 53.208 137.66 52.664C136.828 52.12 135.884 51.848 134.828 51.848C133.74 51.848 132.78 52.12 131.948 52.664C131.116 53.208 130.444 53.976 129.932 54.968C129.452 55.96 129.212 57.112 129.212 58.424ZM161.772 71.48C159.628 71.48 157.532 71.128 155.484 70.424C153.436 69.72 151.708 68.68 150.3 67.304L152.94 62.456C154.476 63.576 155.964 64.424 157.404 65C158.876 65.576 160.252 65.864 161.532 65.864C162.524 65.864 163.292 65.704 163.836 65.384C164.38 65.064 164.652 64.568 164.652 63.896C164.652 63.416 164.492 63.048 164.172 62.792C163.852 62.504 163.356 62.248 162.684 62.024C162.044 61.8 161.244 61.56 160.284 61.304C158.364 60.664 156.764 60.04 155.484 59.432C154.204 58.824 153.244 58.088 152.604 57.224C151.964 56.328 151.644 55.176 151.644 53.768C151.644 52.072 152.06 50.6 152.892 49.352C153.756 48.072 154.972 47.08 156.54 46.376C158.108 45.672 159.98 45.32 162.156 45.32C163.884 45.32 165.564 45.592 167.196 46.136C168.86 46.68 170.412 47.592 171.852 48.872L168.876 53.672C167.436 52.68 166.156 51.96 165.036 51.512C163.916 51.064 162.828 50.84 161.772 50.84C161.228 50.84 160.732 50.904 160.284 51.032C159.836 51.16 159.468 51.384 159.18 51.704C158.924 51.992 158.796 52.376 158.796 52.856C158.796 53.336 158.924 53.72 159.18 54.008C159.468 54.296 159.9 54.552 160.476 54.776C161.084 54.968 161.836 55.208 162.732 55.496C164.812 56.104 166.54 56.728 167.916 57.368C169.292 57.976 170.316 58.744 170.988 59.672C171.692 60.568 172.044 61.768 172.044 63.272C172.044 65.832 171.116 67.848 169.26 69.32C167.436 70.76 164.94 71.48 161.772 71.48Z" fill="white"/>
<rect x="0.5" y="0.5" width="15" height="15" rx="3.5" fill="#18181B" stroke="#27272A"/>
<rect x="20.5" y="0.5" width="15" height="15" rx="3.5" fill="#134E4A" stroke="#0F766E"/>
<rect x="40.5" y="0.5" width="15" height="15" rx="3.5" fill="#115E59" stroke="#0D9488"/>
<rect x="60.5" y="0.5" width="15" height="15" rx="3.5" fill="#0F766E" stroke="#14B8A6"/>
<rect x="80.5" y="0.5" width="15" height="15" rx="3.5" fill="#0D9488" stroke="#2DD4BF"/>
<rect x="100.5" y="0.5" width="15" height="15" rx="3.5" fill="#14B8A6" stroke="#5EEAD4"/>
</svg>
